<svg xmlns="http://www.w3.org/2000/svg" width="393.64" height="221.111" viewBox="0 0 393.64 221.111">
  <g id="EASEMYTRIP" transform="translate(-0.615 -0.035)">
    <path id="Layer" d="M11.306.492,380.947,30.143c18.153,1.217,15.175,4.48,6.189,12.715L206.848,214.5c-10.2,10.928-12.456,7.769-24.42-4.972l-70.645-77.611c-9.452-9.452-10.928-11.42,5.257-17.221l175.317-55L95.132,94.106c-14.864,2.9-12.9,5.153-23.384-9.245L5.894,11.7C-2.082,3.03-1.59-1.476,11.306.492Z" transform="translate(0)" fill="#09b7e1" fill-rule="evenodd"/>
    <path id="Layer-2" data-name="Layer" d="M297.609,470.533l19.189,19.94c9.167,9.711,6.655,10.177-3.729,16.366l-61.011,27.683c-7.2,4.2-11.6.751-6.629-7.2l38.533-60.234c3.47-7.484,7.484-3.47,13.647,3.444Z" transform="translate(-179.844 -343.125)" fill="#007bb3" fill-rule="evenodd"/>
  </g>
</svg>
